<svg width="24" height="23" viewBox="0 0 24 23" fill="none" xmlns="http://www.w3.org/2000/svg">
<path fill-rule="evenodd" clip-rule="evenodd" d="M15.0873 0.495105C14.8142 0.641903 14.7206 0.967026 14.8783 1.22129L17.5337 5.50228H5.02096L7.67617 1.22151C7.83388 0.967254 7.74029 0.642131 7.46713 0.495333L7.12833 0.313259C6.85517 0.166461 6.50587 0.253578 6.34816 0.50784L3.3335 5.3681C3.30677 5.4112 3.28726 5.45633 3.27462 5.50228H1.3458C0.976251 5.50228 0.704001 5.82401 0.790571 6.15841L3.26555 15.7189C3.38918 16.1965 3.84823 16.533 4.376 16.533H17.9968C18.5246 16.533 18.9836 16.1965 19.1073 15.7189L21.5822 6.15841C21.6688 5.82401 21.3966 5.50228 21.027 5.50228H19.2794C19.2668 5.45632 19.2473 5.41119 19.2206 5.3681L16.2059 0.507833C16.0482 0.253572 15.6989 0.166455 15.4257 0.313253L15.0873 0.495105ZM2.43342 6.83128L4.60092 15.204H17.7719L19.9394 6.83128H2.43342Z" fill="white"/>
<ellipse cx="17.5929" cy="16.5324" rx="6.40737" ry="5.92403" fill="white"/>
<path fill-rule="evenodd" clip-rule="evenodd" d="M16.8925 15.5145V13.2004H18.8948V15.5145H21.3977V17.3658H18.8948V19.6799H16.8925V17.3658H14.3896V15.5145H16.8925Z" fill="#227DD8"/>
</svg>
