<svg width="34" height="32" viewBox="0 0 34 32" fill="none" xmlns="http://www.w3.org/2000/svg">
<path fill-rule="evenodd" clip-rule="evenodd" d="M24.6573 32C29.6797 32 33.7511 28.1837 33.7511 23.4761C33.7511 18.7684 29.6797 14.9521 24.6573 14.9521C19.6349 14.9521 15.5635 18.7684 15.5635 23.4761C15.5635 28.1837 19.6349 32 24.6573 32ZM23.663 18.6814V22.0111H20.1107V24.6748H23.663V28.0045H26.5048V24.6748H30.0571V22.0111H26.5048V18.6814H23.663Z" fill="white"/>
<path fill-rule="evenodd" clip-rule="evenodd" d="M20.8043 1.44526C20.5805 1.07941 20.7133 0.611595 21.101 0.400371L21.5813 0.138708C21.969 -0.0725155 22.4647 0.0528343 22.6886 0.418685L26.9672 7.412C27.0051 7.47401 27.0328 7.53895 27.0508 7.60507H29.531C30.0555 7.60507 30.4419 8.068 30.3191 8.54917L27.7063 18.7815C27.1263 18.4444 26.4845 18.202 25.8021 18.0756L27.9874 9.51734H3.14169L6.21796 21.5647H19.2229C18.9638 22.1581 18.7983 22.8017 18.7449 23.4769H5.89874C5.14969 23.4769 4.49817 22.9927 4.3227 22.3055L0.81004 8.54917C0.687175 8.068 1.07357 7.60507 1.59806 7.60507H4.33558C4.35352 7.53895 4.38121 7.47402 4.41915 7.41201L8.69777 0.418694C8.92161 0.0528435 9.41735 -0.0725068 9.80504 0.138717L10.2859 0.400698C10.6736 0.611922 10.8064 1.07973 10.5826 1.44558L6.8141 7.60507H24.573L20.8043 1.44526Z" fill="white"/>
</svg>
