<svg width="38" height="24" viewBox="0 0 38 24" fill="none" xmlns="http://www.w3.org/2000/svg">
<path d="M19.3913 11.8096H19.1852V12.0157H19.3913V11.8096Z" fill="#F2F2F2"/>
<path fill-rule="evenodd" clip-rule="evenodd" d="M3.45235 0.267578H34.3002C35.894 0.267578 37.1793 1.55577 37.1793 3.15313V20.518C37.1793 22.1154 35.894 23.4036 34.3002 23.4036H3.45235C1.85854 23.4036 0.573213 22.1154 0.573213 20.518V3.15313C0.5218 1.55577 1.85854 0.267578 3.45235 0.267578Z" fill="white"/>
<path d="M16.3518 12.1195L17.0217 7.79118C16.7641 7.79118 16.3003 7.79118 16.3003 7.79118C15.9396 7.79118 15.5274 7.58507 15.3728 7.2759C15.3213 7.17284 15.2182 6.76062 15.785 6.3484C15.9911 6.19382 16.1457 6.03923 16.1457 5.93618C16.1972 5.83312 16.1457 5.73007 16.0427 5.62701C15.9396 5.52395 15.682 5.4209 15.3728 5.4209C14.8575 5.4209 14.4968 5.73007 14.4453 5.93618C14.3938 6.09076 14.5484 6.24534 14.6514 6.29687C14.9606 6.55451 15.0636 6.9152 14.8575 7.22437C14.6514 7.58507 14.1877 7.79118 13.7239 7.79118C13.7239 7.79118 13.2602 7.79118 12.951 7.79118C12.8995 8.2034 11.8689 14.6444 11.8174 15.1597H15.8881C15.8881 15.0051 16.0942 13.7684 16.3518 12.1195Z" fill="#459BBE"/>
<path d="M21.762 4.0293H17.6398L17.073 7.53319H17.7944C18.1551 7.53319 18.5673 7.3786 18.7219 7.12097C18.7734 7.06944 18.7734 6.96638 18.7734 6.91485C18.7734 6.76027 18.6704 6.65722 18.5673 6.60569C18.3097 6.39958 18.2581 6.19346 18.2581 6.03888C18.2581 5.98735 18.2581 5.98735 18.2581 5.98735C18.3097 5.62666 18.8249 5.21444 19.4948 5.21444C19.907 5.21444 20.1647 5.31749 20.3708 5.47208C20.5254 5.62666 20.6284 5.83277 20.5769 6.03888C20.5254 6.29652 20.2677 6.50263 20.1131 6.60569C19.7009 6.86333 19.7524 7.12097 19.804 7.22402C19.8555 7.43013 20.2162 7.58472 20.4223 7.58472H21.5044C22.9472 7.58472 23.7716 8.25458 23.4624 9.85194C23.2563 11.2947 22.1227 11.9131 20.8345 11.9131L20.2677 15.2624H21.0406C24.2869 15.2624 26.9663 13.1497 27.4816 9.85194C28.0999 5.67819 25.5236 4.0293 21.762 4.0293Z" fill="#235971"/>
<path d="M11.6107 16.7051H13.2596C13.981 16.7051 14.1356 17.0658 14.084 17.3749C14.0325 17.6326 13.8779 17.8387 13.5688 17.9417C13.981 18.0963 14.1356 18.3024 14.0325 18.7147C13.981 19.1784 13.5688 19.4876 13.0535 19.4876H11.147L11.6107 16.7051ZM12.6928 17.8902C13.002 17.8902 13.1566 17.7356 13.2081 17.5295C13.2596 17.3234 13.1566 17.1688 12.8474 17.1688H12.5382L12.4352 17.8902H12.6928V17.8902ZM12.5382 19.0754C12.8989 19.0754 13.0535 18.9208 13.105 18.6631C13.1566 18.4055 13.002 18.3024 12.6928 18.3024H12.3836L12.2806 19.0754H12.5382Z" fill="#235971"/>
<path d="M16.3516 19.5389C15.9394 19.5905 15.7332 19.5389 15.6302 19.3328C15.4241 19.4874 15.1664 19.5389 14.8573 19.5389C14.342 19.5389 14.1874 19.2813 14.2389 19.0237C14.2389 18.8691 14.342 18.766 14.445 18.663C14.7027 18.4053 15.3725 18.4053 15.6302 18.1992C15.6302 17.9931 15.5787 17.9416 15.321 17.9416C15.0119 17.9416 14.8057 18.0446 14.3935 18.3023L14.4966 17.6839C14.8573 17.4263 15.1664 17.3232 15.5787 17.3232C16.0939 17.3232 16.5577 17.5294 16.4546 18.0962L16.3516 18.7145C16.3 18.9206 16.3 19.0237 16.5577 19.0237L16.3516 19.5389ZM15.6302 18.5599C15.3725 18.7145 14.9603 18.663 14.9088 18.9721C14.9088 19.1267 14.9603 19.2298 15.1149 19.2298C15.2695 19.2298 15.4241 19.1782 15.5271 19.0752C15.5271 19.0237 15.5271 18.9721 15.5271 18.8691L15.6302 18.5599Z" fill="#235971"/>
<path d="M17.1759 17.3232H18.0519L18.0004 17.6324C18.258 17.3748 18.4641 17.3232 18.7733 17.3232C19.237 17.3232 19.4947 17.6324 19.3916 18.0962L19.134 19.5389H18.258L18.4641 18.3538C18.5157 18.1477 18.4126 18.0446 18.258 18.0446C18.1034 18.0446 18.0004 18.1477 17.8973 18.3023L17.6912 19.5905H16.8152L17.1759 17.3232Z" fill="#235971"/>
<path d="M20.0101 16.7051H20.886L20.6799 18.0963L21.5044 17.3234H22.5864L21.5044 18.2509L22.3288 19.4876H21.2467L20.5769 18.457L20.4223 19.4876H19.5978L20.0101 16.7051Z" fill="#235971"/>
<path d="M11.6107 16.7051H13.2596C13.981 16.7051 14.1356 17.0658 14.084 17.3749C14.0325 17.6326 13.8779 17.8387 13.5688 17.9417C13.981 18.0963 14.1356 18.3024 14.0325 18.7147C13.981 19.1784 13.5688 19.4876 13.0535 19.4876H11.147L11.6107 16.7051ZM12.6928 17.8902C13.002 17.8902 13.1566 17.7356 13.2081 17.5295C13.2596 17.3234 13.1566 17.1688 12.8474 17.1688H12.5382L12.4352 17.8902H12.6928V17.8902ZM12.5382 19.0754C12.8989 19.0754 13.0535 18.9208 13.105 18.6631C13.1566 18.4055 13.002 18.3024 12.6928 18.3024H12.3836L12.2806 19.0754H12.5382Z" fill="#235971"/>
<path d="M16.3516 19.5389C15.9394 19.5905 15.7332 19.5389 15.6302 19.3328C15.4241 19.4874 15.1664 19.5389 14.8573 19.5389C14.342 19.5389 14.1874 19.2813 14.2389 19.0237C14.2389 18.8691 14.342 18.766 14.445 18.663C14.7027 18.4053 15.3725 18.4053 15.6302 18.1992C15.6302 17.9931 15.5787 17.9416 15.321 17.9416C15.0119 17.9416 14.8057 18.0446 14.3935 18.3023L14.4966 17.6839C14.8573 17.4263 15.1664 17.3232 15.5787 17.3232C16.0939 17.3232 16.5577 17.5294 16.4546 18.0962L16.3516 18.7145C16.3 18.9206 16.3 19.0237 16.5577 19.0237L16.3516 19.5389ZM15.6302 18.5599C15.3725 18.7145 14.9603 18.663 14.9088 18.9721C14.9088 19.1267 14.9603 19.2298 15.1149 19.2298C15.2695 19.2298 15.4241 19.1782 15.5271 19.0752C15.5271 19.0237 15.5271 18.9721 15.5271 18.8691L15.6302 18.5599Z" fill="#235971"/>
<path d="M17.1759 17.3232H18.0519L18.0004 17.6324C18.258 17.3748 18.4641 17.3232 18.7733 17.3232C19.237 17.3232 19.4947 17.6324 19.3916 18.0962L19.134 19.5389H18.258L18.4641 18.3538C18.5157 18.1477 18.4126 18.0446 18.258 18.0446C18.1034 18.0446 18.0004 18.1477 17.8973 18.3023L17.6912 19.5905H16.8152L17.1759 17.3232Z" fill="#235971"/>
<path d="M20.0101 16.7051H20.886L20.6799 18.0963L21.5044 17.3234H22.5864L21.5044 18.2509L22.3288 19.4876H21.2467L20.5769 18.457L20.4223 19.4876H19.5978L20.0101 16.7051Z" fill="#235971"/>
<path d="M23.0502 16.7051H24.0292L23.5655 19.5391H22.5864L23.0502 16.7051Z" fill="#459BBE"/>
<path d="M24.5444 16.7051H25.9356C27.0177 16.7051 27.3269 17.478 27.2238 18.1479C27.1208 18.7662 26.6055 19.5391 25.678 19.5391H24.0806L24.5444 16.7051ZM25.4719 18.8692C25.9356 18.8692 26.2448 18.6116 26.2963 18.1479C26.3478 17.7872 26.2448 17.4265 25.7295 17.4265H25.4719L25.2142 18.9208L25.4719 18.8692Z" fill="#459BBE"/>
</svg>
