<svg width="37" height="31" viewBox="0 0 37 31" fill="none" xmlns="http://www.w3.org/2000/svg">
<path fill-rule="evenodd" clip-rule="evenodd" d="M25.4312 0.481737C24.9458 0.761076 24.7795 1.37975 25.0597 1.86358L29.7778 10.0098H7.54524L12.263 1.86401C12.5432 1.38018 12.377 0.761509 11.8916 0.48217L11.2896 0.135706C10.8043 -0.143633 10.1836 0.0221399 9.90342 0.505969L4.54698 9.75448C4.49949 9.83648 4.46482 9.92236 4.44236 10.0098H1.01523C0.358624 10.0098 -0.125109 10.622 0.0287073 11.2583L4.42623 29.4508C4.64591 30.3596 5.46155 31 6.39929 31H30.6007C31.5384 31 32.3541 30.3596 32.5738 29.4508L36.9713 11.2583C37.1251 10.622 36.6414 10.0098 35.9848 10.0098H32.8797C32.8572 9.92235 32.8225 9.83647 32.775 9.75446L27.4186 0.505957C27.1384 0.0221277 26.5178 -0.143645 26.0324 0.135694L25.4312 0.481737ZM2.94772 12.5387L6.79893 28.4711H30.2011L34.0523 12.5387H2.94772Z" fill="white"/>
</svg>
