<svg width="19" height="15" viewBox="0 0 19 15" fill="none" xmlns="http://www.w3.org/2000/svg">
<path fill-rule="evenodd" clip-rule="evenodd" d="M12.7376 0.227326C12.5112 0.358931 12.4336 0.650405 12.5644 0.878351L14.7653 4.71627H4.39387L6.59471 0.878555C6.72543 0.650609 6.64786 0.359135 6.42144 0.227531L6.14061 0.0643012C5.9142 -0.0673035 5.62468 0.010797 5.49396 0.238743L2.99518 4.59598C2.97303 4.63462 2.95686 4.67508 2.94638 4.71627H1.34763C1.04132 4.71627 0.81566 5.0047 0.887415 5.3045L2.93886 13.8755C3.04133 14.3036 3.42183 14.6054 3.85928 14.6054H15.1492C15.5867 14.6054 15.9672 14.3036 16.0696 13.8755L18.1211 5.3045C18.1928 5.0047 17.9672 4.71627 17.6609 4.71627H16.2123C16.2019 4.67507 16.1857 4.63461 16.1635 4.59598L13.6648 0.238737C13.534 0.0107912 13.2445 -0.0673089 13.0181 0.0642958L12.7376 0.227326ZM2.24913 5.90773L4.04571 13.4139H14.9628L16.7594 5.90773H2.24913Z" fill="white"/>
</svg>
