<svg width="57" height="58" viewBox="0 0 57 58" fill="none" xmlns="http://www.w3.org/2000/svg">
<path d="M56.4835 17.4589C56.4835 16.5505 55.7585 15.8143 54.8639 15.8143C53.9693 15.8143 53.2442 16.5505 53.2442 17.4589C53.2442 18.3672 53.9693 19.1045 54.8639 19.1045C55.7585 19.1045 56.4835 18.3672 56.4835 17.4589Z" fill="#B77748"/>
<path d="M45.6937 13.9331C45.6937 12.5661 44.6016 11.4573 43.2553 11.4573C41.9078 11.4573 40.8169 12.5661 40.8169 13.9331C40.8169 15.3001 41.9078 16.4101 43.2553 16.4101C44.6016 16.4101 45.6937 15.3001 45.6937 13.9331Z" fill="#B77748"/>
<path d="M47.7517 3.85871C47.7517 2.39426 46.5827 1.20618 45.1404 1.20618C43.6981 1.20618 42.528 2.39426 42.528 3.85871C42.528 5.32428 43.6981 6.51124 45.1404 6.51124C46.5827 6.51124 47.7517 5.32428 47.7517 3.85871Z" fill="#B77748"/>
<path fill-rule="evenodd" clip-rule="evenodd" d="M55.3681 17.4589C55.3681 17.176 55.1424 16.9469 54.8639 16.9469C54.5853 16.9469 54.3597 17.176 54.3597 17.4589C54.3597 17.7427 54.5863 17.9719 54.8639 17.9719C55.1414 17.9719 55.3681 17.7427 55.3681 17.4589ZM44.5782 13.9331C44.5782 13.1916 43.9856 12.5899 43.2553 12.5899C42.5242 12.5899 41.9324 13.1912 41.9324 13.9331C41.9324 14.6756 42.5249 15.2775 43.2553 15.2775C43.9849 15.2775 44.5782 14.6753 44.5782 13.9331ZM46.6362 3.85871C46.6362 3.01915 45.966 2.33877 45.1404 2.33877C44.3142 2.33877 43.6435 3.01978 43.6435 3.85871C43.6435 4.69845 44.3139 5.37864 45.1404 5.37864C45.9663 5.37864 46.6362 4.69908 46.6362 3.85871ZM45.1404 1.20618C46.5827 1.20618 47.7517 2.39426 47.7517 3.85871C47.7517 5.32428 46.5827 6.51124 45.1404 6.51124C43.6981 6.51124 42.528 5.32428 42.528 3.85871C42.528 2.39426 43.6981 1.20618 45.1404 1.20618ZM45.6937 13.9331C45.6937 12.5661 44.6016 11.4573 43.2553 11.4573C41.9078 11.4573 40.8169 12.5661 40.8169 13.9331C40.8169 15.3001 41.9078 16.4101 43.2553 16.4101C44.6016 16.4101 45.6937 15.3001 45.6937 13.9331ZM56.4835 17.4589C56.4835 16.5505 55.7585 15.8143 54.8639 15.8143C53.9693 15.8143 53.2442 16.5505 53.2442 17.4589C53.2442 18.3672 53.9693 19.1045 54.8639 19.1045C55.7585 19.1045 56.4835 18.3672 56.4835 17.4589Z" fill="black"/>
<path fill-rule="evenodd" clip-rule="evenodd" d="M45.8376 24.319C48.0919 27.736 50.9475 28.7848 54.6542 26.4698C54.7769 27.7575 54.8081 29.0702 54.7423 30.401C54.0128 45.1168 41.6736 56.4461 27.1815 55.7054C12.6884 54.9658 1.53153 42.4359 2.25993 27.7213C2.98832 13.0067 15.7514 1.55391 30.2446 2.29462C28.9596 6.37535 30.046 10.0019 33.3166 11.2376C30.3506 20.902 36.9686 27.2252 45.8376 24.319Z" fill="#FCBA7F"/>
<path fill-rule="evenodd" clip-rule="evenodd" d="M27.2711 53.8955L27.2713 53.8955C40.7787 54.5859 52.2799 44.0263 52.9598 30.3099C52.978 29.9429 52.9882 29.5776 52.9907 29.214C51.7263 29.5852 50.4682 29.6311 49.2361 29.2934C47.6026 28.8456 46.2547 27.7873 45.1366 26.4015C40.6965 27.4906 36.5976 26.5321 33.8779 23.7746C31.1815 21.0408 30.1771 16.882 31.2193 12.1848C29.855 11.2816 28.8955 9.96683 28.3804 8.41004C27.9383 7.07358 27.8343 5.60131 28.0248 4.08909C15.3957 4.55285 4.68432 14.8448 4.04241 27.8123C3.36349 41.5275 13.7626 53.2062 27.2711 53.8955ZM28.3906 2.26589C14.679 2.54204 2.95709 13.6376 2.25993 27.7213C1.53153 42.4359 12.6884 54.9658 27.1815 55.7054C41.6736 56.4461 54.0128 45.1168 54.7423 30.401C54.7741 29.7574 54.7833 29.1181 54.7703 28.4838C54.7565 27.8064 54.7176 27.1348 54.6542 26.4698C54.059 26.8415 53.4858 27.1265 52.9335 27.3289C50.046 28.387 47.73 27.1874 45.8376 24.319C36.9686 27.2252 30.3506 20.902 33.3166 11.2376C30.5355 10.1868 29.3337 7.40737 29.8263 4.08991C29.913 3.50598 30.0523 2.90539 30.2446 2.29462C29.6232 2.26286 29.0049 2.25352 28.3906 2.26589Z" fill="black"/>
<path fill-rule="evenodd" clip-rule="evenodd" d="M15.3532 22.4151C17.5239 22.4151 19.2841 24.2023 19.2841 26.4063C19.2841 28.6115 17.5239 30.3987 15.3532 30.3987C13.1826 30.3987 11.4224 28.6115 11.4224 26.4063C11.4224 24.2023 13.1826 22.4151 15.3532 22.4151ZM50.3519 31.8699C51.1863 31.8699 51.8622 32.5563 51.8622 33.4023C51.8622 34.2484 51.1863 34.9359 50.3519 34.9359C49.5187 34.9359 48.8427 34.2484 48.8427 33.4023C48.8427 32.5563 49.5187 31.8699 50.3519 31.8699ZM43.6112 33.4295C44.4456 33.4295 45.1204 34.1159 45.1204 34.9619C45.1204 35.8079 44.4456 36.4943 43.6112 36.4943C42.7779 36.4943 42.102 35.8079 42.102 34.9619C42.102 34.1159 42.7779 33.4295 43.6112 33.4295ZM36.8705 29.9366C37.5297 29.9366 38.064 30.4802 38.064 31.1496C38.064 31.819 37.5297 32.3626 36.8705 32.3626C36.2101 32.3626 35.6758 31.819 35.6758 31.1496C35.6758 30.4802 36.2101 29.9366 36.8705 29.9366ZM16.2702 11.1696C17.1034 11.1696 17.7794 11.8559 17.7794 12.702C17.7794 13.548 17.1034 14.2343 16.2702 14.2343C15.4358 14.2343 14.7598 13.548 14.7598 12.702C14.7598 11.8559 15.4358 11.1696 16.2702 11.1696ZM27.727 27.5004C28.9786 27.5004 29.9925 28.5299 29.9925 29.8007C29.9925 31.0703 28.9786 32.0998 27.727 32.0998C26.4766 32.0998 25.4627 31.0703 25.4627 29.8007C25.4627 28.5299 26.4766 27.5004 27.727 27.5004ZM17.9043 36.97C19.4291 36.97 20.6662 38.226 20.6662 39.7732C20.6662 41.3214 19.4291 42.5774 17.9043 42.5774C16.3795 42.5774 15.1447 41.3214 15.1447 39.7732C15.1447 38.226 16.3795 36.97 17.9043 36.97ZM23.8575 15.5119C25.0544 15.5119 26.0237 16.4973 26.0237 17.7114C26.0237 18.9255 25.0544 19.9098 23.8575 19.9098C22.6617 19.9098 21.6924 18.9255 21.6924 17.7114C21.6924 16.4973 22.6617 15.5119 23.8575 15.5119ZM35.6156 37.9531C37.6189 37.9531 39.2442 39.6021 39.2442 41.6374C39.2442 43.6727 37.6189 45.3217 35.6156 45.3217C33.6111 45.3217 31.987 43.6727 31.987 41.6374C31.987 39.6021 33.6111 37.9531 35.6156 37.9531Z" fill="#B77748"/>
<path fill-rule="evenodd" clip-rule="evenodd" d="M18.1687 26.4063C18.1687 24.8278 16.9079 23.5476 15.3532 23.5476C13.7986 23.5476 12.5378 24.8278 12.5378 26.4063C12.5378 27.9862 13.7988 29.2661 15.3532 29.2661C16.9077 29.2661 18.1687 27.9862 18.1687 26.4063ZM50.7468 33.4023C50.7468 33.1823 50.5708 33.0025 50.3519 33.0025C50.1347 33.0025 49.9582 33.1818 49.9582 33.4023C49.9582 33.6239 50.1358 33.8033 50.3519 33.8033C50.5697 33.8033 50.7468 33.6234 50.7468 33.4023ZM44.0049 34.9619C44.0049 34.7408 43.829 34.5621 43.6112 34.5621C43.394 34.5621 43.2174 34.7414 43.2174 34.9619C43.2174 35.1824 43.394 35.3617 43.6112 35.3617C43.829 35.3617 44.0049 35.183 44.0049 34.9619ZM36.9485 31.1496C36.9485 31.1044 36.9123 31.0692 36.8705 31.0692C36.8268 31.0692 36.7913 31.1051 36.7913 31.1496C36.7913 31.1941 36.8268 31.23 36.8705 31.23C36.9123 31.23 36.9485 31.1948 36.9485 31.1496ZM16.6639 12.702C16.6639 12.4814 16.4873 12.3021 16.2702 12.3021C16.0513 12.3021 15.8753 12.482 15.8753 12.702C15.8753 12.9219 16.0513 13.1018 16.2702 13.1018C16.4873 13.1018 16.6639 12.9225 16.6639 12.702ZM28.8771 29.8007C28.8771 29.1554 28.3625 28.633 27.727 28.633C27.093 28.633 26.5781 29.1551 26.5781 29.8007C26.5781 30.4448 27.0927 30.9673 27.727 30.9673C28.3629 30.9673 28.8771 30.4444 28.8771 29.8007ZM19.5507 39.7732C19.5507 38.8518 18.8134 38.1026 17.9043 38.1026C16.9964 38.1026 16.2601 38.8507 16.2601 39.7732C16.2601 40.6971 16.9967 41.4449 17.9043 41.4449C18.8131 41.4449 19.5507 40.6959 19.5507 39.7732ZM24.9083 17.7114C24.9083 17.1224 24.438 16.6445 23.8575 16.6445C23.2785 16.6445 22.8079 17.122 22.8079 17.7114C22.8079 18.3 23.2778 18.7772 23.8575 18.7772C24.4387 18.7772 24.9083 18.2996 24.9083 17.7114ZM38.1287 41.6374C38.1287 40.2279 37.0031 39.0857 35.6156 39.0857C34.2271 39.0857 33.1024 40.2276 33.1024 41.6374C33.1024 43.0471 34.2271 44.1891 35.6156 44.1891C37.0031 44.1891 38.1287 43.0469 38.1287 41.6374ZM19.2841 26.4063C19.2841 24.2023 17.5239 22.4151 15.3532 22.4151C13.1826 22.4151 11.4224 24.2023 11.4224 26.4063C11.4224 28.6115 13.1826 30.3987 15.3532 30.3987C17.5239 30.3987 19.2841 28.6115 19.2841 26.4063ZM51.8622 33.4023C51.8622 32.5563 51.1863 31.8699 50.3519 31.8699C49.5187 31.8699 48.8427 32.5563 48.8427 33.4023C48.8427 34.2484 49.5187 34.9359 50.3519 34.9359C51.1863 34.9359 51.8622 34.2484 51.8622 33.4023ZM45.1204 34.9619C45.1204 34.1159 44.4456 33.4295 43.6112 33.4295C42.7779 33.4295 42.102 34.1159 42.102 34.9619C42.102 35.8079 42.7779 36.4943 43.6112 36.4943C44.4456 36.4943 45.1204 35.8079 45.1204 34.9619ZM38.064 31.1496C38.064 30.4802 37.5297 29.9366 36.8705 29.9366C36.2101 29.9366 35.6758 30.4802 35.6758 31.1496C35.6758 31.819 36.2101 32.3626 36.8705 32.3626C37.5297 32.3626 38.064 31.819 38.064 31.1496ZM17.7794 12.702C17.7794 11.8559 17.1034 11.1696 16.2702 11.1696C15.4358 11.1696 14.7598 11.8559 14.7598 12.702C14.7598 13.548 15.4358 14.2343 16.2702 14.2343C17.1034 14.2343 17.7794 13.548 17.7794 12.702ZM29.9925 29.8007C29.9925 28.5299 28.9786 27.5004 27.727 27.5004C26.4766 27.5004 25.4627 28.5299 25.4627 29.8007C25.4627 31.0703 26.4766 32.0998 27.727 32.0998C28.9786 32.0998 29.9925 31.0703 29.9925 29.8007ZM20.6662 39.7732C20.6662 38.226 19.4291 36.97 17.9043 36.97C16.3795 36.97 15.1447 38.226 15.1447 39.7732C15.1447 41.3214 16.3795 42.5774 17.9043 42.5774C19.4291 42.5774 20.6662 41.3214 20.6662 39.7732ZM26.0237 17.7114C26.0237 16.4973 25.0544 15.5119 23.8575 15.5119C22.6617 15.5119 21.6924 16.4973 21.6924 17.7114C21.6924 18.9255 22.6617 19.9098 23.8575 19.9098C25.0544 19.9098 26.0237 18.9255 26.0237 17.7114ZM39.2442 41.6374C39.2442 39.6021 37.6189 37.9531 35.6156 37.9531C33.6111 37.9531 31.987 39.6021 31.987 41.6374C31.987 43.6727 33.6111 45.3217 35.6156 45.3217C37.6189 45.3217 39.2442 43.6727 39.2442 41.6374Z" fill="black"/>
</svg>
