<svg width="12" height="9" viewBox="0 0 12 9" fill="none" xmlns="http://www.w3.org/2000/svg">
<g clip-path="url(#clip0_541_4003)">
<path d="M0.765 1.97812C0.431976 1.76998 0 2.00941 0 2.40212V8.5C0 8.77614 0.223858 9 0.5 9H11.5C11.7761 9 12 8.77614 12 8.5V2.40212C12 2.00941 11.568 1.76998 11.235 1.97812L6.265 5.08438C6.10286 5.18571 5.89714 5.18571 5.735 5.08438L0.765 1.97812Z" fill="#AAAAAA"/>
<path d="M0 0.482549C0 0.648926 0.0857101 0.803569 0.226798 0.891749L5.735 4.33438C5.89714 4.43571 6.10286 4.43571 6.265 4.33438L11.7732 0.891749C11.9143 0.803569 12 0.648927 12 0.482549C12 0.216044 11.784 0 11.5175 0H0.482549C0.216044 0 0 0.216044 0 0.482549Z" fill="#AAAAAA"/>
</g>
<defs>
<clipPath id="clip0_541_4003">
<rect width="12" height="9" fill="white"/>
</clipPath>
</defs>
</svg>
