<svg  width="20" height="20" viewBox="0 0 12 12" fill="none" xmlns="http://www.w3.org/2000/svg">
<path fill-rule="evenodd" clip-rule="evenodd" d="M2 0C0.895431 0 0 0.895431 0 2V10C0 11.1046 0.895431 12 2 12H10C11.1046 12 12 11.1046 12 10V2C12 0.895431 11.1046 0 10 0H2ZM7.42857 5.86286H8.39086L8.57143 4.76571H7.42857V4.14117C7.42857 3.83314 7.45829 3.66857 7.918 3.66857H8.57143V2.57143H7.59771C6.41686 2.57143 6.00057 3.14249 6 4.10469V4.76571H5.14286V5.86286H6V9.42857H7.42857V5.86286Z" fill="#AAAAAA"/>
</svg>
