<svg width="20" height="20" viewBox="0 0 13 13" fill="none" xmlns="http://www.w3.org/2000/svg">
<path d="M6.50061 0C4.7353 0 4.51376 0.00771888 3.82042 0.039271C3.12843 0.0709585 2.65609 0.18051 2.24279 0.34125C1.81528 0.507271 1.45263 0.729354 1.09133 1.09078C0.729768 1.45207 0.507682 1.81472 0.341118 2.24209C0.17997 2.65552 0.0702819 3.12799 0.0391358 3.8197C0.00812502 4.51303 0 4.73471 0 6.5C0 8.26529 0.00785437 8.48616 0.0392714 9.17949C0.0710946 9.87147 0.180648 10.3438 0.341254 10.7571C0.507412 11.1846 0.729497 11.5473 1.09093 11.9085C1.45209 12.2701 1.81474 12.4927 2.24198 12.6588C2.65555 12.8195 3.12802 12.929 3.81987 12.9607C4.51321 12.9923 4.73462 13 6.4998 13C8.26524 13 8.48611 12.9923 9.17945 12.9607C9.87144 12.929 10.3443 12.8195 10.7579 12.6588C11.1853 12.4927 11.5474 12.2701 11.9085 11.9085C12.2701 11.5473 12.4922 11.1846 12.6587 10.7572C12.8185 10.3438 12.9282 9.87133 12.9607 9.17963C12.9919 8.48629 13 8.26529 13 6.5C13 4.73471 12.9919 4.51317 12.9607 3.81983C12.9282 3.12785 12.8185 2.65552 12.6587 2.24223C12.4922 1.81472 12.2701 1.45207 11.9085 1.09078C11.547 0.729219 11.1854 0.507136 10.7575 0.34125C10.3431 0.18051 9.87049 0.0709585 9.1785 0.039271C8.48516 0.00771888 8.26443 0 6.49858 0H6.50061ZM5.9175 1.17135C6.09056 1.17108 6.28367 1.17135 6.50061 1.17135C8.23613 1.17135 8.44183 1.17758 9.12718 1.20873C9.76093 1.23771 10.1049 1.3436 10.334 1.43257C10.6374 1.55039 10.8536 1.69122 11.081 1.91872C11.3085 2.14622 11.4493 2.36289 11.5674 2.66622C11.6564 2.89507 11.7624 3.23903 11.7913 3.87278C11.8224 4.55799 11.8292 4.76382 11.8292 6.49851C11.8292 8.2332 11.8224 8.43903 11.7913 9.12424C11.7623 9.75799 11.6564 10.1019 11.5674 10.3308C11.4496 10.6341 11.3085 10.8501 11.081 11.0775C10.8535 11.305 10.6375 11.4458 10.334 11.5636C10.1052 11.653 9.76093 11.7586 9.12718 11.7876C8.44196 11.8188 8.23613 11.8255 6.50061 11.8255C4.76496 11.8255 4.55926 11.8188 3.87404 11.7876C3.24028 11.7584 2.89632 11.6525 2.66706 11.5635C2.36372 11.4457 2.14705 11.3049 1.91955 11.0774C1.69205 10.8499 1.55121 10.6337 1.43313 10.3303C1.34416 10.1014 1.23813 9.75745 1.20928 9.1237C1.17814 8.43849 1.17191 8.23266 1.17191 6.49688C1.17191 4.76111 1.17814 4.55637 1.20928 3.87116C1.23826 3.23741 1.34416 2.89345 1.43313 2.66432C1.55094 2.36099 1.69205 2.14432 1.91955 1.91682C2.14705 1.68932 2.36372 1.54849 2.66706 1.43041C2.89619 1.34103 3.24028 1.23541 3.87404 1.20629C4.47367 1.17921 4.70605 1.17108 5.9175 1.16973V1.17135ZM9.97029 2.25062C9.53966 2.25062 9.19028 2.59959 9.19028 3.03035C9.19028 3.46098 9.53966 3.81035 9.97029 3.81035C10.4009 3.81035 10.7503 3.46098 10.7503 3.03035C10.7503 2.59973 10.4009 2.25062 9.97029 2.25062ZM6.50061 3.16198C4.65716 3.16198 3.16255 4.65657 3.16255 6.5C3.16255 8.34343 4.65716 9.83734 6.50061 9.83734C8.34406 9.83734 9.83812 8.34343 9.83812 6.5C9.83812 4.65657 8.34406 3.16198 6.50061 3.16198ZM6.50061 4.33333C7.69716 4.33333 8.6673 5.30332 8.6673 6.5C8.6673 7.69654 7.69716 8.66667 6.50061 8.66667C5.30392 8.66667 4.33392 7.69654 4.33392 6.5C4.33392 5.30332 5.30392 4.33333 6.50061 4.33333Z" fill="#AAAAAA"/>
</svg>
