<svg width="38" height="24" viewBox="0 0 38 24" fill="none" xmlns="http://www.w3.org/2000/svg">
<path d="M19.4341 11.8096H19.228V12.0157H19.4341V11.8096Z" fill="#F2F2F2"/>
<path fill-rule="evenodd" clip-rule="evenodd" d="M3.76935 0.267578H34.686C36.2834 0.267578 37.5716 1.55577 37.5716 3.15313V20.518C37.5716 22.1154 36.2834 23.4036 34.686 23.4036H3.76935C2.17199 23.4036 0.883789 22.1154 0.883789 20.518V3.15313C0.883789 1.55577 2.17199 0.267578 3.76935 0.267578Z" fill="white"/>
<path d="M15.1056 18.6112C18.862 18.6112 21.9072 15.5659 21.9072 11.8095C21.9072 8.05302 18.862 5.00781 15.1056 5.00781C11.3491 5.00781 8.30389 8.05302 8.30389 11.8095C8.30389 15.5659 11.3491 18.6112 15.1056 18.6112Z" fill="#E31221"/>
<path d="M22.8861 18.6112C26.6426 18.6112 29.6878 15.5659 29.6878 11.8095C29.6878 8.05302 26.6426 5.00781 22.8861 5.00781C19.1297 5.00781 16.0845 8.05302 16.0845 11.8095C16.0845 15.5659 19.1297 18.6112 22.8861 18.6112Z" fill="#F49D1E"/>
<path d="M21.9071 11.8091C21.9071 9.49039 20.7219 7.42928 18.97 6.24414C17.218 7.53234 16.0329 9.54192 16.0329 11.8091C16.0329 14.0764 17.218 16.189 18.97 17.3741C20.7735 16.189 21.9071 14.1279 21.9071 11.8091Z" fill="#EA611C"/>
</svg>
