<svg width="587" height="510" viewBox="0 0 587 510" fill="none" xmlns="http://www.w3.org/2000/svg">
<path d="M65.0929 177.346C53.1445 116.805 110.866 65.8343 169.463 85.182L172.227 86.0946C199.843 95.213 230.222 89.0825 252.141 69.9675L265.596 58.2334C304.407 24.3876 361.125 20.8689 403.822 49.6583L434.005 70.0108L472.396 90.1687C530.821 120.846 545.197 198.079 501.722 247.723C479.948 272.586 471.649 306.805 479.314 338.953C495.932 408.661 439.385 475.043 368.032 468.394L356.37 467.307C339.932 465.776 323.359 467.862 307.814 473.421L261.949 489.822C230.857 500.941 196.309 487.643 180.695 458.548C167.747 434.42 141.37 420.653 114.171 423.828L107.658 424.588C71.9112 428.76 38.1034 407.407 26.5122 373.335L18.4664 349.685C7.1099 316.304 15.1814 279.378 39.4302 253.78L44.5279 248.398C62.4847 229.442 70.1486 202.963 65.0929 177.346Z" fill="#227dd8" fill-opacity="0.04"/>
<g opacity="0.05">
<path d="M191.976 324.866C191.18 324.231 190.546 323.417 190.125 322.49C189.704 321.563 189.508 320.549 189.553 319.532V301.692H143.537C142.413 301.735 141.293 301.533 140.254 301.102C139.215 300.671 138.281 300.02 137.517 299.195C136.012 297.602 135.186 295.487 135.215 293.296C135.209 291.515 135.733 289.774 136.72 288.292L180.796 219.026C184.106 213.915 188.505 211.359 193.993 211.359C196.943 211.259 199.824 212.268 202.066 214.188C204.218 216.069 205.294 218.866 205.294 222.578V289.91H217.001C217.81 289.861 218.619 289.991 219.372 290.29C220.125 290.589 220.803 291.05 221.357 291.64C222.347 292.801 222.891 294.276 222.891 295.801C222.891 297.326 222.347 298.802 221.357 299.962C220.803 300.552 220.125 301.013 219.372 301.312C218.619 301.611 217.81 301.741 217.001 301.692H205.211V319.532C205.26 320.541 205.074 321.549 204.668 322.474C204.262 323.4 203.647 324.219 202.871 324.866C201.356 326.136 199.438 326.822 197.461 326.8C195.463 326.816 193.523 326.132 191.976 324.866ZM189.523 289.91V227.912L150.933 289.91H189.523Z" fill="#0D3145"/>
<path d="M255.832 325.228C251.322 323.259 247.328 320.275 244.163 316.507C240.983 312.527 238.5 308.037 236.819 303.227C234.914 298.032 233.575 292.646 232.824 287.164C232.041 281.194 231.664 275.179 231.695 269.159C231.695 229.497 245.239 209.666 272.325 209.666C299.412 209.666 312.922 229.497 312.857 269.159C312.884 275.15 312.519 281.137 311.766 287.081C311.04 292.564 309.713 297.951 307.808 303.145C306.127 307.954 303.645 312.444 300.465 316.424C297.295 320.197 293.303 323.193 288.795 325.182C283.612 327.474 277.991 328.604 272.325 328.493C266.656 328.607 261.03 327.493 255.832 325.228ZM280.331 313.844C282.597 312.877 284.654 311.479 286.387 309.728C288.143 307.859 289.586 305.72 290.661 303.393C291.848 300.927 292.807 298.358 293.528 295.718C294.286 292.842 294.84 289.915 295.183 286.96C295.589 283.7 295.86 280.713 295.996 277.999C296.131 275.286 296.196 272.339 296.191 269.159C296.191 265.823 296.126 262.743 295.996 259.919C295.865 257.095 295.582 254.065 295.145 250.83C294.771 247.877 294.205 244.952 293.453 242.072C292.74 239.459 291.781 236.919 290.586 234.488C289.502 232.197 288.057 230.096 286.305 228.266C284.582 226.55 282.536 225.192 280.285 224.27C275.141 222.284 269.441 222.284 264.297 224.27C262.063 225.181 260.032 226.526 258.323 228.228C256.584 230.051 255.142 232.135 254.049 234.405C252.844 236.814 251.896 239.344 251.22 241.952C250.486 244.849 249.933 247.789 249.565 250.755C249.129 254.035 248.845 257.09 248.715 259.919C248.584 262.748 248.517 265.828 248.512 269.159C248.512 272.334 248.579 275.293 248.715 278.037C248.85 280.781 249.119 283.79 249.52 287.066C249.867 290.02 250.42 292.947 251.175 295.824C251.885 298.463 252.835 301.032 254.012 303.498C255.076 305.811 256.506 307.938 258.248 309.796C259.968 311.536 262.013 312.921 264.267 313.874C269.416 315.97 275.181 315.97 280.331 313.874V313.844Z" fill="#0D3145"/>
<path d="M382.574 324.866C381.778 324.231 381.144 323.417 380.723 322.49C380.302 321.563 380.106 320.549 380.152 319.532V301.692H334.135C333.011 301.735 331.891 301.533 330.852 301.102C329.813 300.671 328.88 300.02 328.116 299.194C326.61 297.602 325.785 295.486 325.813 293.296C325.807 291.515 326.331 289.774 327.318 288.292L371.394 219.026C374.674 213.915 379.061 211.359 384.553 211.359C387.519 211.248 390.418 212.258 392.672 214.188C394.823 216.069 395.899 218.866 395.899 222.577V289.91H407.607C408.415 289.861 409.225 289.991 409.978 290.29C410.73 290.589 411.408 291.05 411.963 291.64C412.953 292.801 413.497 294.276 413.497 295.801C413.497 297.326 412.953 298.802 411.963 299.962C411.408 300.552 410.73 301.013 409.978 301.312C409.225 301.611 408.415 301.741 407.607 301.692H395.809V319.532C395.858 320.541 395.672 321.549 395.266 322.474C394.86 323.4 394.245 324.219 393.469 324.866C391.955 326.136 390.036 326.822 388.059 326.8C386.061 326.816 384.121 326.132 382.574 324.866ZM380.152 289.91V227.912L341.561 289.91H380.152Z" fill="#0D3145"/>
</g>
<path d="M176.928 309.818C176.132 309.183 175.498 308.369 175.077 307.442C174.656 306.515 174.46 305.501 174.506 304.484V286.644H128.489C127.365 286.687 126.245 286.485 125.206 286.054C124.167 285.623 123.234 284.972 122.47 284.146C120.964 282.554 120.139 280.438 120.167 278.248C120.161 276.467 120.685 274.726 121.672 273.244L165.748 203.978C169.058 198.867 173.457 196.311 178.945 196.311C181.895 196.211 184.776 197.22 187.018 199.14C189.17 201.021 190.246 203.818 190.246 207.529V274.862H201.953C202.762 274.813 203.571 274.943 204.324 275.242C205.077 275.541 205.755 276.002 206.31 276.592C207.3 277.753 207.843 279.228 207.843 280.753C207.843 282.278 207.3 283.754 206.31 284.914C205.755 285.504 205.077 285.965 204.324 286.264C203.571 286.563 202.762 286.693 201.953 286.644H190.163V304.484C190.212 305.493 190.026 306.501 189.62 307.426C189.214 308.352 188.599 309.171 187.823 309.818C186.309 311.088 184.39 311.774 182.413 311.752C180.415 311.768 178.475 311.084 176.928 309.818ZM174.476 274.862V212.864L135.885 274.862H174.476Z" fill="#0D3145"/>
<path d="M240.785 310.179C236.274 308.211 232.281 305.227 229.115 301.459C225.935 297.479 223.452 292.989 221.771 288.179C219.866 282.984 218.527 277.598 217.776 272.116C216.993 266.146 216.616 260.131 216.648 254.111C216.648 214.449 230.191 194.618 257.277 194.618C284.364 194.618 297.874 214.449 297.809 254.111C297.836 260.102 297.471 266.089 296.718 272.033C295.992 277.516 294.665 282.903 292.76 288.097C291.08 292.906 288.597 297.396 285.417 301.376C282.247 305.149 278.255 308.145 273.747 310.134C268.564 312.426 262.943 313.556 257.277 313.445C251.609 313.559 245.982 312.445 240.785 310.179ZM265.283 298.796C267.549 297.829 269.606 296.431 271.34 294.68C273.095 292.811 274.538 290.672 275.613 288.345C276.8 285.879 277.759 283.31 278.48 280.67C279.239 277.794 279.792 274.867 280.135 271.912C280.541 268.652 280.812 265.665 280.948 262.951C281.083 260.238 281.148 257.291 281.143 254.111C281.143 250.775 281.078 247.695 280.948 244.871C280.817 242.047 280.534 239.017 280.098 235.782C279.723 232.829 279.157 229.904 278.405 227.024C277.693 224.411 276.733 221.871 275.538 219.44C274.454 217.149 273.009 215.048 271.257 213.218C269.534 211.502 267.488 210.144 265.238 209.222C260.093 207.236 254.394 207.236 249.249 209.222C247.015 210.133 244.985 211.478 243.275 213.18C241.536 215.003 240.094 217.087 239.001 219.357C237.796 221.766 236.848 224.296 236.172 226.904C235.438 229.801 234.885 232.741 234.517 235.707C234.081 238.987 233.797 242.042 233.667 244.871C233.536 247.7 233.469 250.78 233.464 254.111C233.464 257.286 233.531 260.245 233.667 262.989C233.802 265.733 234.071 268.742 234.472 272.018C234.819 274.972 235.372 277.898 236.127 280.776C236.838 283.415 237.787 285.984 238.964 288.45C240.028 290.763 241.459 292.89 243.2 294.748C244.92 296.488 246.965 297.873 249.219 298.826C254.368 300.922 260.133 300.922 265.283 298.826V298.796Z" fill="#0D3145"/>
<path d="M367.526 309.818C366.731 309.183 366.096 308.369 365.675 307.442C365.254 306.515 365.058 305.501 365.104 304.484V286.644H319.087C317.963 286.687 316.843 286.485 315.804 286.054C314.765 285.623 313.832 284.972 313.068 284.146C311.563 282.554 310.737 280.438 310.765 278.248C310.759 276.467 311.283 274.726 312.27 273.244L356.346 203.978C359.626 198.867 364.013 196.311 369.505 196.311C372.471 196.199 375.37 197.21 377.624 199.14C379.776 201.021 380.852 203.818 380.852 207.529V274.862H392.559C393.368 274.813 394.177 274.943 394.93 275.242C395.683 275.541 396.361 276.002 396.915 276.592C397.905 277.753 398.449 279.228 398.449 280.753C398.449 282.278 397.905 283.754 396.915 284.914C396.361 285.504 395.683 285.965 394.93 286.264C394.177 286.563 393.368 286.693 392.559 286.644H380.761V304.484C380.81 305.493 380.624 306.501 380.218 307.426C379.812 308.352 379.197 309.171 378.421 309.818C376.907 311.088 374.988 311.774 373.011 311.752C371.013 311.768 369.073 311.084 367.526 309.818ZM365.104 274.862V212.864L326.513 274.862H365.104Z" fill="#0D3145"/>
</svg>
