<svg width="20" height="15" viewBox="0 0 20 15" fill="none" xmlns="http://www.w3.org/2000/svg">
<path d="M1.61787 0.989011C1.61787 0.442795 2.04117 0 2.56334 0H17.3758C17.8979 0 18.3212 0.442795 18.3212 0.989011V1.48352H1.61787V0.989011Z" fill="white"/>
<path d="M0.597749 2.14286H3.03608V4.61538H0.630872C0.192328 4.61538 -0.112187 4.15856 0.0394199 3.72811L0.597749 2.14286Z" fill="white"/>
<path d="M3.66639 2.14286H5.24218V4.61538H3.66639V2.14286Z" fill="white"/>
<path d="M5.8725 2.14286H7.44829V4.61538H5.8725V2.14286Z" fill="white"/>
<path d="M8.0786 2.14286H9.65439V4.61538H8.0786V2.14286Z" fill="white"/>
<path d="M10.2847 2.14286H11.8605V4.61538H10.2847V2.14286Z" fill="white"/>
<path d="M12.4908 2.14286H14.0666V4.61538H12.4908V2.14286Z" fill="white"/>
<path d="M14.6969 2.14286H16.2727V4.61538H14.6969V2.14286Z" fill="white"/>
<path d="M16.903 2.14286H19.5155L19.9739 3.76964C20.0929 4.19201 19.7902 4.61538 19.3693 4.61538H16.903V2.14286Z" fill="white"/>
<path fill-rule="evenodd" clip-rule="evenodd" d="M17.6909 15H2.24818C1.90007 15 1.61787 14.7048 1.61787 14.3407V5.27473H18.3212V14.3407C18.3212 14.7048 18.039 15 17.6909 15ZM10.5999 6.75824C10.7739 6.75824 10.915 6.90584 10.915 7.08791V11.5495C10.915 11.7315 10.7739 11.8791 10.5999 11.8791H4.13913C3.96507 11.8791 3.82397 11.7315 3.82397 11.5495V7.08791C3.82397 6.90584 3.96507 6.75824 4.13913 6.75824H10.5999ZM12.4908 7.08791C12.4908 6.90584 12.6319 6.75824 12.806 6.75824H15.8C15.974 6.75824 16.1151 6.90584 16.1151 7.08791V13.022C16.1151 13.2041 15.974 13.3516 15.8 13.3516H12.806C12.6319 13.3516 12.4908 13.2041 12.4908 13.022V7.08791Z" fill="white"/>
</svg>
