<svg width="20" height="24" viewBox="0 0 11 15" fill="none" xmlns="http://www.w3.org/2000/svg">
<path d="M2.56191 0.82256L0.899684 1.78225C0.326914 2.11293 0.0830329 2.79451 0.2828 3.39869C0.295257 3.46891 0.31243 3.53904 0.33449 3.6087C0.789611 5.04602 1.5996 7.38167 2.496 8.93427C3.39239 10.4869 5.01013 12.3562 6.02732 13.469C6.07663 13.5229 6.12877 13.5729 6.18336 13.6188C6.60671 14.0938 7.31891 14.2234 7.89168 13.8927L9.5539 12.933L7.63453 9.6086L6.77762 10.1033C6.09312 9.26135 5.41419 8.34814 4.93845 7.52412C4.4627 6.70011 4.0113 5.65553 3.62436 4.64175L4.48128 4.14701L2.56191 0.82256Z" fill="white"/>
<path d="M8.10945 9.3344L10.0288 12.6589C10.5534 12.356 10.7331 11.6852 10.4303 11.1606L9.60769 9.73585C9.30482 9.21127 8.63404 9.03154 8.10945 9.3344Z" fill="white"/>
<path d="M4.9562 3.87281C5.48078 3.56994 5.66052 2.89916 5.35765 2.37458L4.67216 1.18727C4.34053 0.612868 3.656 0.369232 3.05054 0.572114L4.9562 3.87281Z" fill="white"/>
</svg>
