<svg width="18" height="21" viewBox="0 0 18 21" fill="none" xmlns="http://www.w3.org/2000/svg">
<g filter="url(#filter0_d_541_4011)">
<path d="M6.12734 1.19443L4.66792 2.03703C4.16503 2.32737 3.9509 2.92579 4.12629 3.45626C4.13723 3.51791 4.15231 3.57948 4.17168 3.64065C4.57127 4.90261 5.28244 6.9533 6.06947 8.31648C6.85651 9.67967 8.27687 11.3209 9.16996 12.2979C9.21325 12.3453 9.25904 12.3891 9.30696 12.4294C9.67866 12.8466 10.304 12.9603 10.8069 12.67L12.2663 11.8274L10.5811 8.90854L9.82872 9.34292C9.22773 8.60366 8.63164 7.80186 8.21394 7.07838C7.79623 6.35489 7.3999 5.43776 7.06018 4.54766L7.81254 4.11328L6.12734 1.19443Z" fill="#AAAAAA"/>
<path d="M10.9981 8.6678L12.6833 11.5866C13.1438 11.3207 13.3017 10.7318 13.0357 10.2712L12.3135 9.02027C12.0476 8.55969 11.4586 8.40188 10.9981 8.6678Z" fill="#AAAAAA"/>
<path d="M8.22952 3.87254C8.6901 3.60662 8.84791 3.01768 8.58199 2.55709L7.98014 1.51465C7.68896 1.01032 7.08795 0.796408 6.55636 0.974538L8.22952 3.87254Z" fill="#AAAAAA"/>
</g>
<defs>
<filter id="filter0_d_541_4011" x="0.0658569" y="0.912598" width="17.0991" height="19.9189" filterUnits="userSpaceOnUse" color-interpolation-filters="sRGB">
<feFlood flood-opacity="0" result="BackgroundImageFix"/>
<feColorMatrix in="SourceAlpha" type="matrix" values="0 0 0 0 0 0 0 0 0 0 0 0 0 0 0 0 0 0 127 0" result="hardAlpha"/>
<feOffset dy="4"/>
<feGaussianBlur stdDeviation="2"/>
<feComposite in2="hardAlpha" operator="out"/>
<feColorMatrix type="matrix" values="0 0 0 0 0 0 0 0 0 0 0 0 0 0 0 0 0 0 0.25 0"/>
<feBlend mode="normal" in2="BackgroundImageFix" result="effect1_dropShadow_541_4011"/>
<feBlend mode="normal" in="SourceGraphic" in2="effect1_dropShadow_541_4011" result="shape"/>
</filter>
</defs>
</svg>
