<svg width="38" height="25" viewBox="0 0 38 25" fill="none" xmlns="http://www.w3.org/2000/svg">
<path d="M19.1554 12.8086H18.9426V13.0214H19.1554V12.8086Z" fill="#F2F2F2"/>
<path fill-rule="evenodd" clip-rule="evenodd" d="M2.98106 0.890625H34.9044C36.5537 0.890625 37.8839 2.22076 37.8839 3.87013V21.8004C37.8839 23.4498 36.5537 24.7799 34.9044 24.7799H2.98106C1.33168 24.7799 0.00154204 23.4498 0.00154204 21.8004V3.87013C-0.0516635 2.22076 1.27848 0.890625 2.98106 0.890625Z" fill="white"/>
<path fill-rule="evenodd" clip-rule="evenodd" d="M29.6902 13.8727H29.2114H29.1582H29.105C28.8921 13.8727 28.7325 13.8727 28.5197 13.8727H28.4665H28.4133C28.3601 13.8727 28.2537 13.8727 28.2005 13.8727C28.1473 13.8727 28.1473 13.8727 28.1473 13.8195C28.2005 13.7131 28.2537 13.5535 28.2537 13.4471V13.3939V13.3407C28.3069 13.1278 28.4133 12.915 28.4665 12.7022V12.649C28.4665 12.649 28.4665 12.649 28.4665 12.5958C28.5729 12.2233 28.7325 11.9041 28.8389 11.5317V11.4785C28.8389 11.4785 28.8389 11.4785 28.8389 11.4253C28.9453 11.1592 29.0518 10.8932 29.1582 10.6272C29.1582 10.6272 29.1582 10.6272 29.1582 10.574C29.1582 10.574 29.1582 10.574 29.1582 10.6272C29.1582 10.6804 29.1582 10.7336 29.2114 10.84V10.8932C29.2114 10.9464 29.2114 10.9464 29.2114 10.9996C29.371 11.7977 29.5306 12.5958 29.6902 13.3939C29.7434 13.5535 29.7434 13.6599 29.7966 13.8195C29.7434 13.8195 29.6902 13.8195 29.637 13.8195C29.7434 13.8727 29.7434 13.8727 29.6902 13.8727C29.6902 13.8727 29.7434 13.8727 29.6902 13.8727ZM32.6165 16.9054C32.5633 16.533 32.4569 16.1606 32.3505 15.7349C32.2973 15.4689 32.2441 15.2029 32.1909 14.9368C31.9248 13.7663 31.712 12.5958 31.446 11.4253C31.2332 10.4144 31.0204 9.40345 30.8075 8.33934C30.8075 8.28613 30.8075 8.28613 30.7543 8.28613C30.1159 8.28613 29.5306 8.28613 28.8921 8.28613C28.8389 8.28613 28.8389 8.28613 28.7857 8.28613C28.6261 8.28613 28.4665 8.33934 28.3601 8.44575H28.3069C28.0941 8.55216 27.9876 8.76498 27.8812 8.97781L27.4556 9.98871C27.4556 10.0419 27.4024 10.0951 27.4024 10.0951C27.3492 10.2547 27.2428 10.4676 27.1896 10.6272C27.1896 10.6804 27.1363 10.7336 27.1363 10.7868C27.0299 10.9996 26.9767 11.2124 26.8703 11.4253C26.8703 11.4253 26.8703 11.4785 26.8171 11.5317C26.7107 11.7977 26.6043 12.0637 26.4979 12.3298C26.4979 12.383 26.4447 12.383 26.4447 12.4362C26.3915 12.5958 26.2851 12.8086 26.2319 12.9682C26.1787 13.0746 26.1254 13.181 26.0722 13.3407C25.9658 13.5535 25.8594 13.8195 25.8062 14.0323C25.8062 14.0855 25.753 14.1387 25.753 14.1919C25.6466 14.4048 25.5402 14.6708 25.487 14.8836C25.3806 15.1496 25.221 15.4689 25.1145 15.7349C24.9549 16.1073 24.7953 16.4266 24.6889 16.799V16.8522H25.5934H26.2851H26.9767C26.9767 16.8522 26.9767 16.8522 27.0299 16.8522C27.0831 16.8522 27.0831 16.8522 27.1363 16.799C27.1896 16.6394 27.2428 16.4798 27.296 16.3202C27.3492 16.1606 27.4024 16.0009 27.4556 15.8413C27.4556 15.7881 27.5088 15.6817 27.562 15.6285C27.562 15.6285 27.562 15.6285 27.562 15.5753C27.562 15.5753 27.562 15.5753 27.6152 15.5753C27.7216 15.5753 27.7748 15.5753 27.8812 15.5753C28.0941 15.5753 28.3069 15.5753 28.5197 15.5753C28.7325 15.5753 28.9986 15.5753 29.2114 15.5753C29.4242 15.5753 29.6902 15.5753 29.903 15.5753C30.0627 15.5753 30.2223 15.5753 30.3819 15.5753C30.4351 15.5753 30.4351 15.5753 30.4351 15.6285C30.5415 16.0541 30.5947 16.4266 30.7011 16.8522C30.7011 16.8522 30.7011 16.8522 30.7543 16.8522C30.8607 16.8522 30.9672 16.8522 31.0736 16.8522H31.2864H31.7652H32.2973H32.6165C32.4569 16.9054 32.5101 16.9054 32.6165 16.9054C32.6165 16.9586 32.6165 16.9586 32.6165 16.9054Z" fill="#283479"/>
<path fill-rule="evenodd" clip-rule="evenodd" d="M14.686 10.0951C14.7392 9.98871 14.7924 9.8823 14.8456 9.77589C14.8988 9.61627 15.0052 9.40345 15.0585 9.24383C15.1117 9.19063 15.1116 9.08422 15.1649 9.03101C15.1649 8.97781 15.2181 8.9246 15.2181 8.87139L15.4841 8.28613C15.4841 8.28613 15.4841 8.28613 15.4309 8.28613C14.686 8.28613 13.8879 8.28613 13.1431 8.28613H13.0898L13.0366 8.49896C12.9834 8.60537 12.9302 8.76498 12.877 8.87139C12.8238 9.03101 12.7174 9.24383 12.6642 9.40345C12.611 9.56307 12.5046 9.77589 12.4514 9.93551C12.3982 10.0951 12.345 10.2547 12.2385 10.4144C12.1321 10.7336 11.9725 11.0528 11.8661 11.3188C11.8661 11.3721 11.8129 11.4253 11.8129 11.5317C11.7065 11.7445 11.6533 11.9573 11.5469 12.1701C11.4405 12.4362 11.3341 12.7554 11.2276 13.0746C11.2276 13.1278 11.1744 13.1278 11.1744 13.181C11.068 13.4471 10.9616 13.7131 10.8552 13.9791L10.7488 14.1919C10.7488 14.1919 10.7488 14.1919 10.7488 14.1387C10.6956 13.9259 10.6956 13.7663 10.6424 13.5535C10.5892 13.3939 10.5892 13.2342 10.536 13.0746C10.536 13.0746 10.536 13.0746 10.536 13.0214C10.4828 12.8086 10.4296 12.5426 10.4296 12.3298C10.3232 11.7445 10.2167 11.1592 10.1103 10.574C10.0039 10.0951 9.95071 9.61627 9.8443 9.13742C9.73789 8.65857 9.31225 8.28613 8.8334 8.28613C7.55647 8.28613 6.33274 8.28613 5.05581 8.28613H5.0026C5.0026 8.33934 4.9494 8.44575 4.9494 8.49896C4.9494 8.49896 4.9494 8.49895 4.9494 8.55216C5.05581 8.55216 5.21543 8.60537 5.32184 8.65857C5.64107 8.71178 5.90709 8.81819 6.17312 8.9246C6.27953 8.97781 6.33274 8.97781 6.43915 9.03101C6.70518 9.13742 6.97121 9.24383 7.23723 9.40345C7.34364 9.45666 7.39685 9.50986 7.45005 9.61627C7.55646 9.77589 7.60968 9.8823 7.66289 10.0419C7.7693 10.574 7.92891 11.0528 8.08852 11.5849C8.40776 12.7554 8.727 13.9791 8.99303 15.1496C9.15264 15.7349 9.31226 16.3734 9.47187 16.9586C9.47187 16.9586 9.47187 16.9586 9.47187 17.0118C9.47187 17.0118 9.47188 17.0118 9.52508 17.0118C9.6847 17.0118 9.7911 17.0118 9.95072 17.0118C10.1635 17.0118 10.4296 17.0118 10.6424 17.0118H11.3341C11.4937 17.0118 11.6533 17.0118 11.8661 17.0118C11.8661 17.0118 11.8661 17.0118 11.9193 17.0118C11.9193 16.9586 11.9725 16.8522 12.0257 16.799C12.0789 16.6926 12.1321 16.6394 12.1321 16.533C12.2386 16.3202 12.2918 16.1606 12.3982 15.9477C12.5046 15.6817 12.611 15.4157 12.7174 15.1496C12.7174 15.1496 12.7174 15.0964 12.7706 15.0964C12.877 14.8304 12.9834 14.5644 13.0898 14.2984C13.143 14.1919 13.1963 14.0323 13.2495 13.9259C13.3027 13.7663 13.4091 13.6067 13.4623 13.3939C13.5155 13.2875 13.5687 13.181 13.6219 13.0746C13.6751 12.915 13.7815 12.7022 13.8347 12.5426V12.4894L13.8879 12.383C13.8879 12.383 13.8879 12.383 13.8879 12.3298C13.9943 12.0637 14.1008 11.7977 14.2072 11.4785C14.2604 11.3188 14.3668 11.106 14.42 10.9464C14.4732 10.6272 14.5796 10.3611 14.686 10.0951Z" fill="#283479"/>
<path fill-rule="evenodd" clip-rule="evenodd" d="M18.6232 8.28613H18.57H16.6546C16.6014 8.28613 16.495 8.28613 16.4418 8.28613H16.3886V8.39254C16.3354 8.71178 16.2822 9.03101 16.1758 9.29704C16.1226 9.45666 16.1226 9.61627 16.0694 9.77589C16.0162 10.0419 15.963 10.3611 15.8565 10.6804C15.8565 10.7868 15.8033 10.84 15.8033 10.9464C15.7501 11.0528 15.7501 11.1592 15.7501 11.2124C15.6969 11.4785 15.6437 11.7977 15.5905 12.0637C15.5905 12.1701 15.5373 12.2233 15.5373 12.3298C15.4841 12.5426 15.4309 12.7554 15.3777 12.9682C15.3245 13.2342 15.2713 13.5003 15.2181 13.7131C15.1649 13.9259 15.1117 14.1387 15.1117 14.3516C15.1117 14.458 15.0585 14.5644 15.0585 14.6708C15.0053 14.9368 14.952 15.2029 14.8988 15.5221C14.8988 15.5753 14.8456 15.6285 14.8456 15.7349C14.7392 16.1073 14.686 16.4798 14.6328 16.799V16.8522C14.8988 16.8522 15.1649 16.8522 15.4309 16.8522H16.1226C16.3354 16.8522 16.6014 16.8522 16.8142 16.8522H16.8675C16.8675 16.799 16.8675 16.799 16.9207 16.7458C16.9739 16.533 17.0271 16.3734 17.0271 16.1606C17.0803 16.0541 17.0803 15.9477 17.0803 15.8413C17.1335 15.5753 17.1867 15.2561 17.2399 14.99C17.2399 14.8836 17.2931 14.8304 17.2931 14.724L17.3463 14.458C17.3463 14.4048 17.3463 14.4048 17.3995 14.3516C17.4527 14.0855 17.5059 13.8195 17.5591 13.5535C17.6123 13.2342 17.6655 12.915 17.772 12.5958C17.8252 12.4362 17.8251 12.3298 17.8784 12.1701C17.9848 11.7977 18.038 11.3721 18.1444 10.9996C18.1976 10.7868 18.2508 10.6272 18.2508 10.4144C18.3572 9.8823 18.4636 9.29704 18.6232 8.76498C18.57 8.60537 18.6232 8.44575 18.6232 8.28613Z" fill="#283479"/>
<path fill-rule="evenodd" clip-rule="evenodd" d="M25.061 8.49939C25.0078 8.49939 24.9546 8.44619 24.9546 8.44619C24.7417 8.33978 24.4757 8.28657 24.2629 8.23336H24.2097C23.8904 8.18016 23.518 8.12695 23.1456 8.12695H22.9328C22.8263 8.12695 22.6667 8.12695 22.5603 8.12695C22.4539 8.12695 22.3475 8.12695 22.2411 8.18016C22.0283 8.18016 21.8154 8.23336 21.6026 8.28657C21.3898 8.33977 21.177 8.39298 20.9642 8.49939C20.7513 8.6058 20.5917 8.65901 20.4321 8.81862C20.2193 8.92504 20.0597 9.08465 19.9 9.24427C19.8468 9.29748 19.7936 9.35068 19.7936 9.40389C19.6872 9.5635 19.5808 9.72312 19.4744 9.93594C19.4744 9.93594 19.4744 9.93594 19.4744 9.98915C19.368 10.2552 19.3148 10.5212 19.2616 10.7872C19.2084 11.1065 19.2616 11.4257 19.368 11.7449C19.4744 12.0642 19.6872 12.3834 19.9532 12.5962C20.1661 12.7558 20.3789 12.9155 20.5917 13.0751C20.7513 13.1815 20.9642 13.2879 21.1238 13.3943C21.2302 13.4475 21.2834 13.5007 21.3898 13.5007C21.4962 13.5539 21.5494 13.6071 21.6558 13.6603C21.8154 13.7667 21.9218 13.8199 22.0815 13.9264C22.1879 14.0328 22.2943 14.1924 22.2943 14.352V14.5116C22.2943 14.6712 22.1879 14.7776 22.0815 14.8841C21.975 14.9905 21.8686 15.0437 21.709 15.0969C21.6558 15.1501 21.5494 15.1501 21.443 15.2033C21.2302 15.2565 21.0173 15.2565 20.7513 15.2565C20.6449 15.2565 20.5917 15.2565 20.4853 15.2565C20.2193 15.2565 20.0064 15.2033 19.7404 15.1501C19.634 15.1501 19.5276 15.0969 19.4212 15.0437C19.3148 14.9905 19.2084 14.9373 19.102 14.9373C18.9423 14.8841 18.7827 14.8309 18.6763 14.7244C18.6763 14.7244 18.6231 14.6712 18.6231 14.7244C18.5699 14.8841 18.5699 15.0437 18.5167 15.2565C18.4103 15.6821 18.3039 16.1078 18.2507 16.5334C18.2507 16.5334 18.2507 16.5334 18.2507 16.5866C18.2507 16.6398 18.2507 16.5866 18.2507 16.5866C18.4635 16.693 18.6763 16.7462 18.8891 16.7995C18.9955 16.7995 19.0487 16.8527 19.1552 16.8527C19.2084 16.8527 19.2616 16.9059 19.368 16.9059C19.5276 16.9591 19.6872 16.9591 19.9 16.9591H19.9532H20.0064C20.0064 16.9591 20.0065 16.9591 20.0597 16.9591H20.1129H20.1661H20.2193C20.2193 16.9591 20.2193 16.9591 20.2725 16.9591C20.4321 16.9591 20.5917 16.9591 20.6981 16.9591H20.9109C20.9642 16.9591 20.9641 16.9591 21.0173 16.9591H21.1238H21.177C21.177 16.9591 21.177 16.9591 21.2302 16.9591C21.443 16.9591 21.6026 16.9059 21.8154 16.9059C21.9218 16.9059 22.0283 16.8527 22.1347 16.8527C22.3475 16.7995 22.5603 16.7462 22.7731 16.6398C22.9328 16.5866 23.0392 16.5334 23.1988 16.427H23.252C23.4116 16.3206 23.5712 16.2142 23.7308 16.0546C23.9437 15.895 24.0501 15.6821 24.2097 15.4693C24.4757 14.9905 24.6353 14.4584 24.5821 13.9264C24.5821 13.4475 24.3693 12.9687 23.9969 12.6494C23.6776 12.277 23.252 12.011 22.7731 11.7981C22.5071 11.6385 22.1879 11.4789 21.9218 11.3193C21.9218 11.3193 21.9218 11.3193 21.8686 11.3193C21.7622 11.2129 21.6558 11.1597 21.5494 11.0533C21.443 10.9468 21.443 10.7872 21.443 10.6276C21.443 10.5212 21.4962 10.468 21.5494 10.4148C21.709 10.2552 21.8686 10.1488 22.0815 10.0424C22.2411 9.98915 22.4007 9.98915 22.5071 9.93594C22.5071 9.93594 22.5071 9.93594 22.5603 9.93594C22.5603 9.93594 22.5603 9.93594 22.6135 9.93594H22.7731H23.0924H23.1456H23.1988H23.252C23.3052 9.93594 23.3584 9.93594 23.4116 9.93594C23.6244 9.98915 23.784 9.98915 23.9437 10.0424C24.1565 10.0956 24.3161 10.1488 24.5289 10.2552H24.5821L24.6885 9.77633C24.7417 9.61671 24.7417 9.45709 24.7949 9.29748C25.0078 9.08465 25.061 8.81863 25.061 8.49939C25.1142 8.49939 25.1142 8.5526 25.061 8.49939Z" fill="#283479"/>
</svg>
